<?xml version="1.0" encoding="iso-8859-1"?>
<!-- Generator: Adobe Illustrator 19.0.0, SVG Export Plug-In . SVG Version: 6.00 Build 0)  -->
<svg version="1.1" id="Capa_1" xmlns="http://www.w3.org/2000/svg" xmlns:xlink="http://www.w3.org/1999/xlink" x="0px" y="0px"
	 viewBox="0 0 512 512" style="enable-background:new 0 0 512 512;" xml:space="preserve">
<g>
	<g>
		<g>
			<path d="M416,128c5.896,0,10.667-4.771,10.667-10.667V74.667C426.667,68.771,421.896,64,416,64h-13.313
				C377.667,25.479,319.813,0,256,0S134.333,25.479,109.313,64H96c-5.896,0-10.667,4.771-10.667,10.667v42.667
				C85.333,123.229,90.104,128,96,128h10.667v362.667H96c-5.896,0-10.667,4.771-10.667,10.667C85.333,507.229,90.104,512,96,512h320
				c5.896,0,10.667-4.771,10.667-10.667c0-5.896-4.771-10.667-10.667-10.667h-10.667V128H416z M202.667,64h106.667
				C315.229,64,320,68.771,320,74.667c0,5.896-4.771,10.667-10.667,10.667H202.667c-5.896,0-10.667-4.771-10.667-10.667
				C192,68.771,196.771,64,202.667,64z M245.333,448h-74.667v-74.667h74.667V448z M245.333,352h-74.667v-85.333h74.667V352z
				 M245.333,245.333h-74.667v-74.667h74.667V245.333z M341.333,448h-74.667v-74.667h74.667V448z M341.333,309.333V352h-74.667
				v-85.333h74.667V309.333z M341.333,245.333h-74.667v-74.667h74.667V245.333z"/>
			<circle cx="330.667" cy="309.333" r="10.667"/>
		</g>
	</g>
</g>
<g>
</g>
<g>
</g>
<g>
</g>
<g>
</g>
<g>
</g>
<g>
</g>
<g>
</g>
<g>
</g>
<g>
</g>
<g>
</g>
<g>
</g>
<g>
</g>
<g>
</g>
<g>
</g>
<g>
</g>
</svg>
